<?xml version="1.0" encoding="UTF-8"?>
<svg id="Layer_1" xmlns="http://www.w3.org/2000/svg" version="1.1" xmlns:xlink="http://www.w3.org/1999/xlink" viewBox="0 0 841.9 595.3">
  <!-- Generator: Adobe Illustrator 29.0.0, SVG Export Plug-In . SVG Version: 2.1.0 Build 186)  -->
  <defs>
    <style>
      .st0 {
        fill: url(#linear-gradient);
      }

      .st1 {
        fill: #00b9ad;
      }

      .st2 {
        fill: #414042;
      }
    </style>
    <linearGradient id="linear-gradient" x1="225.7" y1="407.5" x2="480.3" y2="152.8" gradientUnits="userSpaceOnUse">
      <stop offset="0" stop-color="#1f9b90"/>
      <stop offset=".3" stop-color="#14a59a"/>
      <stop offset=".9" stop-color="#00b9ad"/>
    </linearGradient>
  </defs>
  <path class="st0" d="M420.9,111.3c33.2,0,64.4,16.4,83.5,44v.2c.1,0,46.6,69,46.6,69,.4-4,.6-8.1.6-12.2,0-72.1-58.5-130.6-130.6-130.6s-101,33.2-120.6,80.5l18.7,27.8,42.1,62.5c13.6,19.6,35.8,31.3,59.3,31.3s50.4-14.2,63.1-37.1l.5.3,17.5,25.9c-19,25.2-49,40.4-81,40.4s-64.4-16.4-83.5-44v-.2c-.1,0-46.1-68.2-46.1-68.2-.3,3.8-.5,7.6-.5,11.5,0,72.1,58.5,130.6,130.6,130.6s100.7-33,120.4-80l-19.1-28.4-42.1-62.5c-13.6-19.6-35.8-31.3-59.3-31.3s-50.4,14.2-63.1,37.1l-.5-.3-17.5-25.9c19-25.2,49-40.4,81-40.4ZM421,168.3c6.2,0,12,1.3,17.4,3.6,6,2.6,11.4,6.5,15.7,11.4,6.8,7.7,10.9,17.9,10.9,29,0,24.3-19.7,43.9-43.9,43.9s-44-19.7-44-43.9,19.7-43.9,44-43.9Z"/>
  <g>
    <g>
      <path class="st1" d="M263.5,513.1h-24c-.9,0-1.9-.2-3-.5-1.1-.3-2.1-.9-3-1.6-.9-.7-1.7-1.7-2.3-2.9-.6-1.2-.9-2.6-.9-4.4v-24c0-.5,0-.9.3-1.3.2-.4.4-.8.7-1.1.3-.3.7-.5,1.1-.7.4-.2.9-.3,1.3-.3h30v6.7h-26.7v20.7c0,.9.2,1.5.7,2,.5.5,1.1.7,2,.7h24v6.7ZM260.5,498.1h-21v-6.7h21v6.7Z"/>
      <path class="st1" d="M306.6,510.3c0,.5,0,.9-.3,1.3-.2.4-.4.8-.7,1.1s-.7.5-1.1.7c-.4.2-.8.3-1.3.3s-.8,0-1.2-.2c-.4-.2-.8-.4-1.1-.7l-24.3-25.4v25.9h-6.7v-33.9c0-.7.2-1.3.6-1.9.4-.6.9-1,1.5-1.2.6-.3,1.3-.3,1.9-.2.7.1,1.2.4,1.7.9l24.3,25.4v-25.9h6.7v33.9Z"/>
      <path class="st1" d="M347.5,513.1h-24c-.9,0-1.9-.2-3-.5-1.1-.3-2.1-.9-3-1.6-.9-.7-1.7-1.7-2.3-2.9-.6-1.2-.9-2.6-.9-4.4v-24c0-.5,0-.9.3-1.3.2-.4.4-.8.7-1.1.3-.3.7-.5,1.1-.7.4-.2.9-.3,1.3-.3h30v6.7h-26.7v20.7c0,.9.2,1.5.7,2,.5.5,1.1.7,2,.7h24v6.7ZM344.5,498.1h-21v-6.7h21v6.7Z"/>
      <path class="st1" d="M390.6,488.7c0,1.5-.2,2.9-.6,4.1-.4,1.2-.9,2.2-1.5,3.2-.6.9-1.4,1.7-2.2,2.3-.8.6-1.7,1.2-2.6,1.6-.9.4-1.8.7-2.8.9-.9.2-1.8.3-2.6.3l13.9,12h-10.3l-13.9-12h-4.8v-6.7h15.1c.8,0,1.6-.2,2.3-.5.7-.3,1.3-.7,1.8-1.1.5-.5.9-1.1,1.2-1.7.3-.7.4-1.4.4-2.3v-4.2c0-.4,0-.7-.1-.9,0-.2-.2-.3-.4-.4s-.3-.1-.5-.2c-.2,0-.3,0-.4,0h-22v30.1h-6.7v-33.4c0-.5,0-.9.3-1.3.2-.4.4-.8.7-1.1.3-.3.7-.5,1.1-.7.4-.2.9-.3,1.3-.3h25.3c1.5,0,2.7.3,3.8.8,1,.5,1.9,1.2,2.5,2,.6.8,1.1,1.7,1.4,2.6.3.9.4,1.8.4,2.6v4.2Z"/>
      <path class="st1" d="M433.5,509.8c0,.5,0,.9-.3,1.3-.2.4-.4.8-.7,1.1-.3.3-.7.5-1.1.7-.4.2-.9.3-1.3.3h-24c-.6,0-1.3,0-2-.2-.7-.1-1.4-.4-2.1-.7-.7-.3-1.4-.7-2-1.2-.6-.5-1.2-1.1-1.7-1.8s-.9-1.5-1.2-2.4c-.3-.9-.4-1.9-.4-3.1v-18c0-.6,0-1.3.2-2,.1-.7.4-1.4.7-2.1.3-.7.7-1.4,1.2-2,.5-.6,1.1-1.2,1.8-1.7.7-.5,1.5-.9,2.4-1.2.9-.3,1.9-.4,3.1-.4h27.1v6.7h-27.1c-.9,0-1.5.2-2,.7-.5.5-.7,1.1-.7,2v18c0,.9.2,1.5.7,2,.5.5,1.1.7,2,.7h20.7v-8.3h-17.7v-6.7h21c.5,0,.9,0,1.3.3.4.2.8.4,1.1.7.3.3.5.7.7,1.1.2.4.3.8.3,1.3v15Z"/>
      <path class="st1" d="M475.4,488.7c0,1.5-.2,2.9-.6,4.1-.4,1.2-.9,2.2-1.5,3.2-.6.9-1.4,1.7-2.2,2.3s-1.7,1.2-2.6,1.6c-.9.4-1.8.7-2.8.9-.9.2-1.8.3-2.6.3h-2.7v12.1h-6.7v-12.1h-2.7c-.8,0-1.7,0-2.6-.3-.9-.2-1.9-.5-2.8-.9-.9-.4-1.8-1-2.6-1.6s-1.6-1.4-2.2-2.3c-.6-.9-1.2-2-1.5-3.2-.4-1.2-.6-2.6-.6-4.1v-12.3h6.7v12.3c0,.9.1,1.7.4,2.3.3.7.7,1.3,1.2,1.8.5.5,1.1.9,1.8,1.1.7.3,1.5.4,2.4.4h12c.6-.1,1.3-.2,1.9-.4.7-.2,1.3-.4,1.8-.8.5-.4,1-.9,1.4-1.6.4-.7.5-1.6.5-2.8v-12.3h6.7v12.3Z"/>
      <path class="st1" d="M531.2,513.1h-24c-.9,0-1.9-.2-3-.5-1.1-.3-2.1-.9-3-1.6-.9-.7-1.7-1.7-2.3-2.9-.6-1.2-.9-2.6-.9-4.4v-24c0-.5,0-.9.3-1.3.2-.4.4-.8.7-1.1.3-.3.7-.5,1.1-.7.4-.2.9-.3,1.3-.3h30v6.7h-26.7v20.7c0,.9.2,1.5.7,2,.5.5,1.1.7,2,.7h24v6.7ZM528.2,498.1h-21v-6.7h21v6.7Z"/>
      <path class="st1" d="M572.6,488.7c0,1.5-.2,2.9-.6,4.1-.4,1.2-.9,2.2-1.5,3.2-.6.9-1.4,1.7-2.2,2.3s-1.7,1.2-2.6,1.6c-.9.4-1.8.7-2.8.9-.9.2-1.8.3-2.6.3h-2.7v12.1h-6.7v-12.1h-2.7c-.8,0-1.7,0-2.6-.3-.9-.2-1.9-.5-2.8-.9-.9-.4-1.8-1-2.6-1.6-.8-.6-1.6-1.4-2.2-2.3-.6-.9-1.2-2-1.5-3.2s-.6-2.6-.6-4.1v-12.3h6.7v12.3c0,.9.1,1.7.4,2.3.3.7.7,1.3,1.2,1.8.5.5,1.1.9,1.8,1.1.7.3,1.5.4,2.4.4h12c.6-.1,1.3-.2,1.9-.4.7-.2,1.3-.4,1.8-.8.5-.4,1-.9,1.4-1.6.4-.7.5-1.6.5-2.8v-12.3h6.7v12.3Z"/>
      <path class="st1" d="M611.7,513.1h-24c-.9,0-1.9-.2-3-.5-1.1-.3-2.1-.9-3-1.6-.9-.7-1.7-1.7-2.3-2.9-.6-1.2-.9-2.6-.9-4.4v-24c0-.5,0-.9.3-1.3.2-.4.4-.8.7-1.1.3-.3.7-.5,1.1-.7.4-.2.9-.3,1.3-.3h30v6.7h-26.7v20.7c0,.9.2,1.5.7,2,.5.5,1.1.7,2,.7h24v6.7ZM608.7,498.1h-21v-6.7h21v6.7Z"/>
    </g>
    <g>
      <polygon class="st2" points="244.1 408.9 248.6 413.3 254.3 407.5 248.4 401.7 244.1 406 239.6 401.7 233.9 407.5 239.7 413.3 244.1 408.9"/>
      <path class="st2" d="M244.1,416.7c-8,0-13.7,6.8-13.7,14.8s5.7,14.1,13.7,14.1,13.6-6.2,13.6-14.1-5.7-14.8-13.6-14.8ZM244.1,436.8c-3.1,0-5.4-2.4-5.4-5.5s2.3-5.8,5.4-5.8,5.3,2.7,5.3,5.8-2.2,5.5-5.3,5.5Z"/>
      <path class="st2" d="M266,443.4c0,4.8-3.3,6.6-7.9,6.6l.6,7.1c10.7,0,15.9-3.6,15.9-13.4v-27.2l-8.8,1.1v25.7Z"/>
      <polygon class="st2" points="402.1 408.1 406.6 412.5 412.3 406.7 406.5 400.9 402.1 405.2 397.7 400.9 391.9 406.7 397.7 412.5 402.1 408.1"/>
      <path class="st2" d="M422.9,430.1c0,4-1.5,5.8-4.7,5.8s0,0,0,0c0,0,0,0,0,0-1.9,0-3.6-.1-5.2-.3,1.6-2.1,2.6-4.5,2.6-7.2,0-6.4-5.2-12.1-12.9-12.1s-12.7,5.3-12.7,12.1.9,5.3,2.5,7.4c-1.7.2-3.6.2-5.4.2h-76.2c-2.2,0-3.9-.5-5.4-1.3,0-.4,0-.8,0-1.2v-4.4c0-8.6-5.3-13.2-12.9-13.2h-5.8v9h3.8c3.6,0,6.1,2,6.1,5v1.8c0,2.6-1.5,4.3-4.7,4.3h-14l1.3,9.3h12.6c4.8,0,8.3-1.1,10.6-3.4,2.2,2.2,5.1,3.4,8.4,3.4,0,0,0,0,0,0h76.2c5.7,0,11.6-.8,16.3-2.8,5.3,1.9,10.4,2.8,14.8,2.8,0,0,0,0,0,0h0s0,0,0,0c9,0,13.5-4,13.5-11.9v-29.1c0,0-8.7,1-8.7,1v24.9ZM402.4,435.5c-3.1-1.1-4.8-3.5-4.8-6s1.9-4.9,4.8-4.9,4.9,2,4.9,4.9-1.9,4.7-4.9,6Z"/>
      <polygon class="st2" points="439.7 445.1 448.4 445.1 448.4 404.1 439.7 405.2 439.7 445.1"/>
      <polygon class="st2" points="486.9 416.9 481.1 411.2 475.2 416.9 481.1 422.7 486.9 416.9"/>
      <polygon class="st2" points="570.8 452 566.7 448 560.9 453.8 566.8 459.6 570.8 455.6 574.9 459.6 580.7 453.8 574.8 448 570.8 452"/>
      <path class="st2" d="M611.5,433.5c-6.7,1.1-12,1.8-18.3,2.1-.9-1.7-1.5-3.6-1.5-5.2,0-3,2.5-5.2,6.5-5.2s4,.4,7.3,1.3l2.4-7.5c-4.7-1.6-8.3-2.4-11.1-2.4-7.7,0-13,4.9-13,11.3s.6,5.2,1.9,7.9h-4c-2.2,0-4.3-.6-6.2-1.8v-11.7l-8.8,1v6.7c0,4-2.3,5.7-6.7,5.7s0,0,0,0c0,0,0,0,0,0h-54.4c-3.4,0-5.8-1.9-6-5.2v-14l-8.8,1.1v20.9c0,6.3-2.8,9.3-8.5,9.3s-8.8-2.7-8.9-8.3c0-2.7.6-5.4,1.6-8.6l-7.1-1.9c-1.6,4.9-2.4,9.3-2.4,13.1,0,10,5.8,15,16.8,15s16.2-5.4,17.1-14.6c1.5,1.6,3.6,2.5,6.1,2.5,0,0,0,0,0,0h54.4c5.9,0,10.3-1.4,12.9-4.2,2.6,2.7,5.8,4.2,8.8,4.2,0,0,0,0,0,0h0c12.6,0,20.4-.9,28-2.3l1.9-9.3Z"/>
    </g>
  </g>
</svg>