<?xml version="1.0" encoding="UTF-8"?>
<svg id="Layer_1" xmlns="http://www.w3.org/2000/svg" version="1.1" xmlns:xlink="http://www.w3.org/1999/xlink" viewBox="0 0 841.9 595.3">
  <!-- Generator: Adobe Illustrator 29.0.0, SVG Export Plug-In . SVG Version: 2.1.0 Build 186)  -->
  <defs>
    <style>
      .st0 {
        fill: url(#linear-gradient);
      }

      .st1 {
        fill: #00b9ad;
      }

      .st2 {
        fill: #414042;
      }
    </style>
    <linearGradient id="linear-gradient" x1="525.2" y1="412.6" x2="684.7" y2="253.1" gradientUnits="userSpaceOnUse">
      <stop offset="0" stop-color="#1f9b90"/>
      <stop offset=".3" stop-color="#11a89c"/>
      <stop offset=".6" stop-color="#04b4a8"/>
      <stop offset="1" stop-color="#00b9ad"/>
    </linearGradient>
  </defs>
  <g>
    <g>
      <path class="st1" d="M96.9,317.3c-.4.2-.8.4-1.1.8-.3.3-.6.7-.8,1.1-.2.4-.3.9-.3,1.4v25.6c0,1.8.3,3.4,1,4.7.7,1.3,1.5,2.3,2.5,3.1,1,.8,2.1,1.4,3.2,1.7,1.2.3,2.2.5,3.2.5h25.6v-7.1h-25.5c-.9,0-1.7-.2-2.2-.7-.5-.5-.7-1.2-.7-2.1v-22.1h28.4v-7.1h-31.9c-.5,0-1,0-1.4.3Z"/>
      <rect class="st1" x="104.7" y="333" width="22.4" height="7.1"/>
      <path class="st1" d="M169.1,344.5l-25.9-27c-.5-.5-1.1-.9-1.8-1s-1.4,0-2.1.2c-.6.3-1.2.7-1.6,1.3-.4.6-.6,1.3-.6,2v36.1h7.1v-27.5l25.9,27.1c.3.4.7.6,1.2.8.4.2.9.2,1.3.2s1,0,1.4-.3c.4-.2.8-.4,1.1-.8.3-.3.6-.7.8-1.1.2-.4.3-.9.3-1.4v-36.1h-7.1v27.5Z"/>
      <path class="st1" d="M186.4,317.3c-.4.2-.8.4-1.1.8-.3.3-.6.7-.8,1.1-.2.4-.3.9-.3,1.4v25.6c0,1.8.3,3.4,1,4.7s1.5,2.3,2.5,3.1c1,.8,2.1,1.4,3.2,1.7,1.2.3,2.2.5,3.2.5h25.6v-7.1h-25.5c-.9,0-1.7-.2-2.2-.7s-.7-1.2-.7-2.1v-22.1h28.4v-7.1h-31.9c-.5,0-1,0-1.4.3Z"/>
      <rect class="st1" x="194.2" y="333" width="22.4" height="7.1"/>
      <path class="st1" d="M255.4,343c1-.2,2-.5,2.9-1,1-.4,1.9-1,2.8-1.7.9-.7,1.7-1.5,2.4-2.5s1.2-2.1,1.6-3.4c.4-1.3.6-2.7.6-4.3v-4.5c0-.9-.2-1.8-.5-2.8-.3-1-.8-1.9-1.5-2.8-.7-.9-1.6-1.6-2.7-2.2-1.1-.6-2.4-.9-4-.9h-26.9c-.5,0-1,0-1.4.3s-.8.4-1.1.8c-.3.3-.6.7-.7,1.1-.2.4-.3.9-.3,1.4v35.5h7.1v-32h23.4c.1,0,.3,0,.5,0s.3,0,.5.2c.2,0,.3.3.4.5,0,.2.1.5.1.9v4.5c0,.9-.1,1.8-.4,2.5-.3.7-.7,1.3-1.2,1.8-.5.5-1.2.9-1.9,1.2-.7.3-1.6.5-2.4.6h-16v7.1h5.1l14.8,12.8h11l-14.8-12.8c.9,0,1.8,0,2.8-.3Z"/>
      <path class="st1" d="M310.4,334c-.3-.3-.7-.6-1.1-.8s-.9-.3-1.4-.3h-22.4v7.1h18.9v8.9h-22.1c-.9,0-1.6-.2-2.1-.7s-.8-1.2-.8-2.1v-19.1c0-1,.2-1.7.7-2.2.5-.5,1.2-.7,2.1-.7h28.8v-7.1h-28.8c-1.2,0-2.3.2-3.3.5-1,.3-1.8.7-2.6,1.2-.7.5-1.4,1.1-1.9,1.8-.5.7-1,1.4-1.3,2.1-.3.7-.6,1.5-.7,2.2-.2.8-.2,1.5-.2,2.1v19.2c0,1.2.2,2.3.5,3.3.3,1,.7,1.8,1.2,2.6.5.7,1.1,1.4,1.8,1.9.7.5,1.4.9,2.1,1.3.7.3,1.5.6,2.2.7.8.2,1.5.2,2.1.2h25.6c.5,0,1,0,1.4-.3.4-.2.8-.4,1.1-.7.3-.3.6-.7.7-1.1.2-.4.3-.9.3-1.4v-16c0-.5,0-1-.3-1.4-.2-.4-.4-.8-.7-1.1Z"/>
      <path class="st1" d="M349,330.1c0,1.2-.2,2.2-.6,3-.4.7-.9,1.3-1.4,1.7-.6.4-1.2.7-1.9.9-.7.2-1.4.3-2.1.4h-12.8c-.9,0-1.8-.1-2.5-.4-.8-.3-1.4-.7-1.9-1.2-.5-.5-.9-1.2-1.2-1.9-.3-.7-.4-1.6-.4-2.5v-13.1h-7.1v13.1c0,1.6.2,3,.6,4.3.4,1.3,1,2.4,1.6,3.4s1.5,1.8,2.4,2.5c.9.7,1.8,1.3,2.8,1.7,1,.4,2,.8,2.9,1,1,.2,1.9.3,2.8.3h2.8v12.8h7.1v-12.8h2.9c.9,0,1.8,0,2.8-.3,1-.2,2-.5,2.9-1,1-.4,1.9-1,2.8-1.7.9-.7,1.7-1.5,2.4-2.5.7-1,1.2-2.1,1.6-3.4.4-1.3.6-2.7.6-4.3v-13.1h-7.1v13.1Z"/>
      <path class="st1" d="M382.1,317.3c-.4.2-.8.4-1.1.8-.3.3-.6.7-.8,1.1-.2.4-.3.9-.3,1.4v25.6c0,1.8.3,3.4,1,4.7.7,1.3,1.5,2.3,2.5,3.1,1,.8,2.1,1.4,3.2,1.7,1.2.3,2.2.5,3.2.5h25.6v-7.1h-25.5c-.9,0-1.7-.2-2.2-.7-.5-.5-.7-1.2-.7-2.1v-22.1h28.4v-7.1h-31.9c-.5,0-1,0-1.4.3Z"/>
      <rect class="st1" x="389.9" y="333" width="22.4" height="7.1"/>
      <path class="st1" d="M452.5,330.1c0,1.2-.2,2.2-.6,3-.4.7-.9,1.3-1.4,1.7-.6.4-1.2.7-1.9.9-.7.2-1.4.3-2.1.4h-12.8c-.9,0-1.8-.1-2.5-.4-.8-.3-1.4-.7-1.9-1.2-.5-.5-.9-1.2-1.2-1.9-.3-.7-.4-1.6-.4-2.5v-13.1h-7.1v13.1c0,1.6.2,3,.6,4.3.4,1.3,1,2.4,1.6,3.4s1.5,1.8,2.4,2.5c.9.7,1.8,1.3,2.8,1.7,1,.4,2,.8,2.9,1,1,.2,1.9.3,2.8.3h2.8v12.8h7.1v-12.8h2.9c.9,0,1.8,0,2.8-.3,1-.2,2-.5,2.9-1,1-.4,1.9-1,2.8-1.7.9-.7,1.7-1.5,2.4-2.5s1.2-2.1,1.6-3.4c.4-1.3.6-2.7.6-4.3v-13.1h-7.1v13.1Z"/>
      <rect class="st1" x="475.8" y="333" width="22.4" height="7.1"/>
      <path class="st1" d="M501.3,317h-31.9c-.5,0-1,0-1.4.3-.4.2-.8.4-1.1.8-.3.3-.6.7-.8,1.1-.2.4-.3.9-.3,1.4v25.6c0,1.8.3,3.4,1,4.7s1.5,2.3,2.5,3.1c1,.8,2.1,1.4,3.2,1.7,1.2.3,2.2.5,3.2.5h25.6v-7.1h-25.5c-.9,0-1.7-.2-2.2-.7-.5-.5-.7-1.2-.7-2.1v-22.1h28.4v-7.1Z"/>
    </g>
    <g>
      <polygon class="st2" points="110 245.1 114.8 249.8 120.9 243.5 114.7 237.4 110 242 105.3 237.4 99.2 243.5 105.4 249.8 110 245.1"/>
      <path class="st2" d="M110.1,253.4c-8.6,0-14.6,7.2-14.6,15.7s6,15.1,14.6,15.1,14.5-6.6,14.5-15.1-6-15.7-14.5-15.7ZM110.1,274.8c-3.3,0-5.8-2.6-5.8-5.9s2.5-6.2,5.8-6.2,5.7,2.9,5.7,6.2-2.4,5.9-5.7,5.9Z"/>
      <path class="st2" d="M133.4,281.9c0,5.1-3.5,7.1-8.4,7.1l.7,7.6c11.4,0,17-3.9,17-14.2v-28.9l-9.3,1.1v27.4Z"/>
      <polygon class="st2" points="278.4 244.3 283.2 248.9 289.3 242.7 283.1 236.5 278.4 241.2 273.7 236.5 267.6 242.7 273.8 248.9 278.4 244.3"/>
      <path class="st2" d="M300.6,267.6c0,4.2-1.6,6.2-5,6.2s0,0,0,0c0,0,0,0,0,0-2,0-3.8-.1-5.5-.4,1.7-2.2,2.8-4.8,2.8-7.7,0-6.8-5.5-12.9-13.8-12.9s-13.5,5.7-13.5,12.9,1,5.6,2.6,7.8c-1.9.2-3.8.2-5.8.2s0,0,0,0,0,0,0,0h-11.6s0,0,0,0,0,0,0,0h-23.2s0,0,0,0,0,0,0,0h-23.2s0,0,0,0,0,0,0,0h-11.6s0,0,0,0,0,0,0,0h-11.6s0,0,0,0,0,0,0,0c-2.3,0-4.1-.5-5.7-1.4,0-.4,0-.8,0-1.3v-4.7c0-9.1-5.6-14.1-13.8-14.1h-6.2v9.6h4.1c3.8,0,6.5,2.2,6.5,5.3v1.9c0,2.8-1.6,4.6-5,4.6h-14.9l1.4,9.9h13.4c5.1,0,8.9-1.2,11.2-3.6,2.4,2.3,5.4,3.6,8.9,3.6s0,0,0,0,0,0,0,0h11.6s0,0,0,0,0,0,0,0h11.6s0,0,0,0,0,0,0,0h23.2s0,0,0,0,0,0,0,0h23.2s0,0,0,0,0,0,0,0h11.6s0,0,0,0,0,0,0,0c6,0,12.3-.9,17.4-3,5.7,2,11.1,3,15.7,3s0,0,0,0,0,0,0,0c9.6,0,14.4-4.2,14.4-12.7v-31c0,0-9.3,1.1-9.3,1.1v26.5ZM278.7,273.4c-3.3-1.2-5.1-3.8-5.1-6.4s2-5.2,5.1-5.2,5.3,2.1,5.3,5.2-2,5-5.2,6.4Z"/>
      <polygon class="st2" points="318.4 283.7 327.8 283.7 327.8 240 318.4 241.1 318.4 283.7"/>
      <polygon class="st2" points="368.8 253.6 362.6 247.5 356.4 253.6 362.6 259.8 368.8 253.6"/>
      <polygon class="st2" points="458.2 291 453.8 286.7 447.7 292.9 454 299 458.2 294.8 462.6 299 468.7 292.9 462.4 286.7 458.2 291"/>
      <path class="st2" d="M482,273.6c-1-1.9-1.6-3.8-1.6-5.6,0-3.2,2.6-5.6,6.9-5.6s4.2.4,7.8,1.4l2.5-8c-5-1.7-8.8-2.5-11.8-2.5-8.3,0-13.9,5.2-13.9,12.1s.7,5.5,2,8.4h-4.2s0,0,0,0,0,0,0,0c-2.3,0-4.6-.7-6.6-1.9v-12.4l-9.3,1.1v7.2c0,4.3-2.4,6.1-7.1,6.1s0,0,0,0c0,0,0,0,0,0h-23.2s0,0,0,0,0,0,0,0h-23.2s0,0,0,0,0,0,0,0h-11.6s0,0,0,0,0,0,0,0c-3.6,0-6.2-2-6.3-5.5v-14.9l-9.3,1.1v22.3c0,6.7-3,9.9-9,9.9s-9.4-2.9-9.4-8.8c0-2.9.6-5.7,1.7-9.1l-7.5-2c-1.7,5.3-2.6,9.9-2.6,13.9,0,10.7,6.2,16,17.9,16s17.2-5.8,18.2-15.5c1.6,1.7,3.8,2.7,6.5,2.7s0,0,0,0,0,0,0,0h11.6s0,0,0,0,0,0,0,0h23.2s0,0,0,0,0,0,0,0h23.2s0,0,0,0,0,0,0,0c6.3,0,11-1.5,13.8-4.5,2.8,2.9,6.2,4.5,9.4,4.5s0,0,0,0,0,0,0,0c13.4,0,21.8-1,29.8-2.5l2-9.9c-7.2,1.2-12.8,1.9-19.5,2.3Z"/>
    </g>
  </g>
  <path class="st0" d="M640.1,215c27.2,0,52.7,13.5,68.4,36h0c0,.1,38.1,56.6,38.1,56.6.3-3.3.5-6.6.5-10,0-59.1-47.9-106.9-106.9-106.9s-82.7,27.2-98.8,65.9l15.3,22.7,34.5,51.2c11.2,16,29.3,25.6,48.5,25.6s41.2-11.6,51.7-30.4l.4.2,14.3,21.2c-15.6,20.6-40.1,33-66.4,33s-52.7-13.5-68.4-36h0c0-.1-37.6-56-37.6-56-.3,3.1-.4,6.2-.4,9.4,0,59.1,47.9,106.9,106.9,106.9s82.4-27,98.6-65.5l-15.6-23.2-34.5-51.2c-11.2-16-29.3-25.6-48.5-25.6s-41.2,11.6-51.7,30.4l-.4-.2-14.3-21.2c15.6-20.6,40.1-33,66.4-33ZM640.2,261.6c5.1,0,9.9,1,14.2,2.9,5,2.1,9.3,5.3,12.8,9.3,5.6,6.3,8.9,14.6,8.9,23.7,0,19.9-16.1,36-36,36s-36-16.1-36-36,16.1-36,36-36Z"/>
</svg>