<?xml version="1.0" encoding="UTF-8"?>
<svg id="Layer_1" xmlns="http://www.w3.org/2000/svg" version="1.1" xmlns:xlink="http://www.w3.org/1999/xlink" viewBox="0 0 841.9 595.3">
  <!-- Generator: Adobe Illustrator 29.0.0, SVG Export Plug-In . SVG Version: 2.1.0 Build 186)  -->
  <defs>
    <style>
      .st0 {
        fill: url(#linear-gradient);
      }

      .st1 {
        fill: #00b9ad;
      }

      .st2 {
        fill: #414042;
      }
    </style>
    <linearGradient id="linear-gradient" x1="569.4" y1="400.9" x2="712.6" y2="257.7" gradientUnits="userSpaceOnUse">
      <stop offset="0" stop-color="#1f9b90"/>
      <stop offset=".3" stop-color="#0daba0"/>
      <stop offset=".6" stop-color="#03b5a9"/>
      <stop offset="1" stop-color="#00b9ad"/>
    </linearGradient>
  </defs>
  <path class="st0" d="M672.6,223.4c24.4,0,47.4,12.1,61.4,32.3h0c0,.1,34.2,50.9,34.2,50.9.3-2.9.4-5.9.4-9,0-53-43-96-96-96s-74.3,24.4-88.7,59.2l13.8,20.4,31,46c10,14.4,26.3,23,43.6,23s37-10.5,46.4-27.3l.4.2,12.8,19.1c-14,18.5-36,29.7-59.6,29.7s-47.4-12.1-61.4-32.3h0c0-.1-33.8-50.3-33.8-50.3-.2,2.8-.4,5.6-.4,8.4,0,53,43,96.1,96.1,96.1s74.1-24.3,88.6-58.9l-14.1-20.9-31-46c-10-14.4-26.3-23-43.6-23s-37,10.5-46.4,27.3l-.4-.2-12.8-19.1c14-18.5,36-29.7,59.6-29.7ZM672.7,265.3c4.5,0,8.9.9,12.8,2.6,4.4,1.9,8.4,4.8,11.5,8.4,5,5.7,8,13.1,8,21.3,0,17.9-14.5,32.3-32.3,32.3s-32.3-14.5-32.3-32.3,14.5-32.3,32.3-32.3Z"/>
  <g>
    <g>
      <rect class="st1" x="77.7" y="330" width="10.3" height="3.3"/>
      <path class="st1" d="M74.2,322.8c-.2,0-.4.2-.5.4-.1.1-.3.3-.3.5s-.1.4-.1.6v11.7c0,.8.2,1.6.5,2.1.3.6.7,1.1,1.1,1.4.5.4.9.6,1.5.8.5.2,1,.2,1.5.2h11.7v-3.3h-11.7c-.4,0-.8-.1-1-.3-.2-.2-.3-.6-.3-1v-10.1h13v-3.3h-14.7c-.2,0-.5,0-.6.1Z"/>
      <path class="st1" d="M107.3,335.3l-11.9-12.4c-.2-.2-.5-.4-.8-.5-.3,0-.6,0-1,0-.3.1-.5.3-.7.6-.2.3-.3.6-.3.9v16.6h3.3v-12.6l11.9,12.4c.2.2.3.3.5.4s.4.1.6.1.4,0,.6-.1c.2,0,.4-.2.5-.3.1-.1.3-.3.3-.5s.1-.4.1-.7v-16.6h-3.3v12.6Z"/>
      <rect class="st1" x="118.8" y="330" width="10.3" height="3.3"/>
      <path class="st1" d="M115.2,322.8c-.2,0-.4.2-.5.4-.1.1-.3.3-.3.5s-.1.4-.1.6v11.7c0,.8.2,1.6.5,2.1.3.6.7,1.1,1.1,1.4.5.4.9.6,1.5.8.5.2,1,.2,1.5.2h11.7v-3.3h-11.7c-.4,0-.8-.1-1-.3-.2-.2-.3-.6-.3-1v-10.1h13v-3.3h-14.7c-.2,0-.5,0-.6.1Z"/>
      <path class="st1" d="M146.9,334.6c.5,0,.9-.2,1.4-.4.4-.2.9-.5,1.3-.8.4-.3.8-.7,1.1-1.1.3-.4.6-1,.7-1.5.2-.6.3-1.2.3-2v-2.1c0-.4,0-.8-.2-1.3-.1-.5-.4-.9-.7-1.3s-.7-.7-1.2-1c-.5-.3-1.1-.4-1.8-.4h-12.3c-.2,0-.4,0-.6.1-.2,0-.4.2-.5.4-.1.1-.3.3-.3.5s-.1.4-.1.6v16.3h3.3v-14.7h10.7c0,0,.1,0,.2,0,0,0,.2,0,.2,0,0,0,.1.1.2.2,0,0,0,.2,0,.4v2.1c0,.4,0,.8-.2,1.1-.1.3-.3.6-.6.8-.2.2-.5.4-.9.6-.3.1-.7.2-1.1.3h-7.4v3.3h2.3l6.8,5.9h5l-6.8-5.9c.4,0,.8,0,1.3-.1Z"/>
      <path class="st1" d="M172.1,330.5c-.1-.1-.3-.3-.5-.4-.2,0-.4-.1-.7-.1h-10.3v3.3h8.7v4.1h-10.1c-.4,0-.7-.1-1-.3-.2-.2-.3-.6-.3-1v-8.8c0-.4.1-.8.3-1s.6-.3,1-.3h13.2v-3.3h-13.2c-.6,0-1.1,0-1.5.2s-.8.3-1.2.6c-.3.2-.6.5-.9.8-.2.3-.4.6-.6,1-.1.3-.3.7-.3,1,0,.3-.1.7-.1,1v8.8c0,.6,0,1.1.2,1.5.1.4.3.8.6,1.2.2.3.5.6.8.9s.6.4,1,.6c.3.1.7.3,1,.3.3,0,.7.1,1,.1h11.7c.2,0,.5,0,.7-.1.2,0,.4-.2.5-.3.1-.1.3-.3.3-.5s.1-.4.1-.7v-7.3c0-.2,0-.4-.1-.6s-.2-.4-.3-.5Z"/>
      <path class="st1" d="M189.8,328.7c0,.6,0,1-.3,1.4s-.4.6-.7.8c-.3.2-.6.3-.9.4s-.6.1-1,.2h-5.9c-.4,0-.8,0-1.2-.2-.3-.1-.6-.3-.9-.6s-.4-.5-.6-.9-.2-.7-.2-1.1v-6h-3.3v6c0,.7,0,1.4.3,2,.2.6.4,1.1.8,1.6.3.4.7.8,1.1,1.1.4.3.8.6,1.3.8.4.2.9.4,1.4.4.5,0,.9.1,1.3.1h1.3v5.9h3.3v-5.9h1.3c.4,0,.8,0,1.3-.1.5,0,.9-.2,1.3-.4s.9-.5,1.3-.8c.4-.3.8-.7,1.1-1.1.3-.4.6-1,.7-1.5.2-.6.3-1.2.3-2v-6h-3.3v6Z"/>
      <rect class="st1" x="208.6" y="330" width="10.3" height="3.3"/>
      <path class="st1" d="M205,322.8c-.2,0-.4.2-.5.4-.1.1-.3.3-.3.5s-.1.4-.1.6v11.7c0,.8.2,1.6.5,2.1.3.6.7,1.1,1.1,1.4.5.4.9.6,1.5.8.5.2,1,.2,1.5.2h11.7v-3.3h-11.7c-.4,0-.8-.1-1-.3-.2-.2-.3-.6-.3-1v-10.1h13v-3.3h-14.7c-.2,0-.5,0-.6.1Z"/>
      <path class="st1" d="M237.3,328.7c0,.6,0,1-.3,1.4s-.4.6-.7.8c-.3.2-.6.3-.9.4s-.6.1-1,.2h-5.9c-.4,0-.8,0-1.2-.2-.3-.1-.6-.3-.9-.6s-.4-.5-.6-.9c-.1-.3-.2-.7-.2-1.1v-6h-3.3v6c0,.7,0,1.4.3,2,.2.6.4,1.1.8,1.6.3.4.7.8,1.1,1.1.4.3.8.6,1.3.8.4.2.9.4,1.4.4.5,0,.9.1,1.3.1h1.3v5.9h3.3v-5.9h1.3c.4,0,.8,0,1.3-.1.5,0,.9-.2,1.3-.4s.9-.5,1.3-.8c.4-.3.8-.7,1.1-1.1.3-.4.6-1,.7-1.5.2-.6.3-1.2.3-2v-6h-3.3v6Z"/>
      <rect class="st1" x="247.9" y="330" width="10.3" height="3.3"/>
      <path class="st1" d="M244.4,322.8c-.2,0-.4.2-.5.4-.1.1-.3.3-.3.5s-.1.4-.1.6v11.7c0,.8.2,1.6.5,2.1.3.6.7,1.1,1.1,1.4.5.4.9.6,1.5.8.5.2,1,.2,1.5.2h11.7v-3.3h-11.7c-.4,0-.8-.1-1-.3-.2-.2-.3-.6-.3-1v-10.1h13v-3.3h-14.7c-.2,0-.5,0-.6.1Z"/>
      <path class="st1" d="M274,322.9c-.4.1-.8.3-1.2.6-.3.2-.6.5-.9.8-.2.3-.4.6-.6,1-.1.3-.3.7-.3,1,0,.3-.1.7-.1,1v8.8c0,.6,0,1.1.2,1.5.1.4.3.8.6,1.2s.5.6.8.9.6.4,1,.6c.3.1.7.3,1,.3.3,0,.7.1,1,.1h11.7v-3.3h-11.7c-.4,0-.7-.1-1-.3-.2-.2-.3-.6-.3-1v-8.8c0-.4.1-.8.3-1s.6-.3,1-.3h11.7v-3.3h-11.7c-.6,0-1.1,0-1.5.2Z"/>
      <path class="st1" d="M306.7,324.5c-.7-.7-1.5-1.2-2.4-1.6-.9-.4-1.9-.6-3-.6h-4.4c-1.1,0-2.1.2-3,.6-.9.4-1.7.9-2.4,1.6-.7.7-1.2,1.5-1.6,2.4-.4.9-.6,1.9-.6,3v3.4c0,1.1.2,2.1.6,3,.4.9.9,1.7,1.6,2.4.7.7,1.5,1.2,2.4,1.6.9.4,1.9.6,3,.6h4.4c1.1,0,2.1-.2,3-.6.9-.4,1.7-.9,2.4-1.6.7-.7,1.2-1.5,1.6-2.4.4-.9.6-1.9.6-3v-3.4c0-1.1-.2-2.1-.6-3-.4-.9-.9-1.7-1.6-2.4ZM305.6,333.4c0,.6-.1,1.2-.3,1.7-.2.5-.5,1-.9,1.3-.4.4-.8.7-1.3.9-.5.2-1.1.3-1.7.3h-4.4c-.6,0-1.2-.1-1.7-.3-.5-.2-1-.5-1.3-.9-.4-.4-.7-.8-.9-1.3-.2-.5-.3-1.1-.3-1.7v-3.4c0-.6.1-1.2.3-1.7.2-.5.5-1,.9-1.3.4-.4.8-.7,1.3-.9s1.1-.3,1.7-.3h4.4c.6,0,1.2.1,1.7.3s1,.5,1.3.9c.4.4.7.8.9,1.3.2.5.3,1.1.3,1.7v3.4Z"/>
      <path class="st1" d="M331.7,322.5c-.4,0-.7,0-1.1,0-.3.1-.6.4-.8.7l-7.4,12.9-7.4-12.9c0-.2-.2-.3-.3-.4s-.3-.2-.4-.3-.3-.1-.5-.1c-.2,0-.3,0-.5,0-.4.1-.6.3-.9.6-.2.3-.3.6-.3,1v16.6h3.3v-10.7l5.8,10.1c.1.3.3.5.6.6.2.1.5.2.8.2s.6,0,.8-.2c.3-.1.5-.3.6-.6l5.8-10.1v10.7h3.3v-16.6c0-.4-.1-.7-.3-1-.2-.3-.5-.5-.9-.6Z"/>
      <path class="st1" d="M354,326.1c-.2-.4-.5-.9-.8-1.3-.3-.4-.7-.8-1.1-1.1-.4-.3-1-.6-1.5-.8-.6-.2-1.2-.3-2-.3h-7.4c-.4,0-.9,0-1.5.2-.5.2-1,.4-1.5.8-.5.4-.8.8-1.1,1.4-.3.6-.5,1.3-.5,2.1v13.4h3.3v-13.4c0-.4.1-.8.3-1,.2-.2.6-.3,1-.3h7.3c.4,0,.8,0,1.1.2.3.1.6.3.8.6s.4.5.5.9c.1.3.2.7.3,1.1v1.5c0,.4,0,.8-.2,1.1-.1.3-.3.6-.6.8s-.5.4-.9.6c-.3.1-.7.2-1.1.3h-7.4v3.3h7.4c.4,0,.8,0,1.3-.1.5,0,.9-.2,1.4-.4.4-.2.9-.5,1.3-.8.4-.3.8-.7,1.1-1.1.3-.4.6-1,.7-1.5.2-.6.3-1.2.3-2v-1.5c0-.4,0-.8-.1-1.3s-.2-.9-.4-1.4Z"/>
      <path class="st1" d="M374.5,323.2c-.2-.2-.3-.3-.5-.4-.2,0-.4-.1-.6-.1h-7.3c-1.3,0-2.5.2-3.6.7-1.1.4-2,1.1-2.8,1.9-.8.8-1.4,1.7-1.9,2.8-.5,1.1-.7,2.3-.7,3.6v9h3.3v-4.4h11.4v4.4h3.3v-16.3c0-.2,0-.4-.1-.6s-.2-.4-.3-.5ZM371.7,333h-11.4v-1.3c0-.9.1-1.7.4-2.3.3-.6.6-1.2,1-1.6.4-.4.8-.8,1.3-1,.5-.2.9-.4,1.3-.5.4-.1.8-.2,1.1-.2.3,0,.5,0,.6,0h5.7v7Z"/>
      <path class="st1" d="M393.4,335.3l-11.9-12.4c-.2-.2-.5-.4-.8-.5-.3,0-.6,0-1,0-.3.1-.5.3-.7.6-.2.3-.3.6-.3.9v16.6h3.3v-12.6l11.9,12.4c.2.2.3.3.5.4s.4.1.6.1.4,0,.6-.1c.2,0,.4-.2.5-.3.1-.1.3-.3.3-.5s.1-.4.1-.7v-16.6h-3.3v12.6Z"/>
      <path class="st1" d="M414.3,328.7c0,.6,0,1-.3,1.4s-.4.6-.7.8c-.3.2-.6.3-.9.4s-.6.1-1,.2h-5.9c-.4,0-.8,0-1.2-.2-.3-.1-.6-.3-.9-.6s-.4-.5-.6-.9-.2-.7-.2-1.1v-6h-3.3v6c0,.7,0,1.4.3,2,.2.6.4,1.1.8,1.6.3.4.7.8,1.1,1.1.4.3.8.6,1.3.8.4.2.9.4,1.4.4.5,0,.9.1,1.3.1h1.3v5.9h3.3v-5.9h1.3c.4,0,.8,0,1.3-.1.5,0,.9-.2,1.3-.4s.9-.5,1.3-.8c.4-.3.8-.7,1.1-1.1.3-.4.6-1,.7-1.5.2-.6.3-1.2.3-2v-6h-3.3v6Z"/>
      <path class="st1" d="M431.8,322.7h-3.3v16.3c0,.2,0,.5.1.7s.2.4.3.5c.1.1.3.3.5.3.2,0,.4.1.6.1h14.8v-3.3h-13.2v-14.7Z"/>
      <rect class="st1" x="447.5" y="322.7" width="3.3" height="17.9"/>
      <path class="st1" d="M474.2,322.5c-.4,0-.7,0-1.1,0-.3.1-.6.4-.8.7l-7.4,12.9-7.4-12.9c0-.2-.2-.3-.3-.4s-.3-.2-.4-.3-.3-.1-.5-.1c-.2,0-.3,0-.5,0-.4.1-.6.3-.9.6-.2.3-.3.6-.3,1v16.6h3.3v-10.7l5.8,10.1c.1.3.3.5.6.6.2.1.5.2.8.2s.6,0,.8-.2c.3-.1.5-.3.6-.6l5.8-10.1v10.7h3.3v-16.6c0-.4-.1-.7-.3-1-.2-.3-.5-.5-.9-.6Z"/>
      <rect class="st1" x="479.2" y="322.7" width="3.3" height="17.9"/>
      <polygon class="st1" points="484.9 325.9 492 325.9 492 340.6 495.3 340.6 495.3 325.9 502.5 325.9 502.5 322.7 484.9 322.7 484.9 325.9"/>
      <rect class="st1" x="509.3" y="330" width="10.3" height="3.3"/>
      <path class="st1" d="M505.8,322.8c-.2,0-.4.2-.5.4-.1.1-.3.3-.3.5s-.1.4-.1.6v11.7c0,.8.2,1.6.5,2.1.3.6.7,1.1,1.1,1.4.5.4.9.6,1.5.8.5.2,1,.2,1.5.2h11.7v-3.3h-11.7c-.4,0-.8-.1-1-.3-.2-.2-.3-.6-.3-1v-10.1h13v-3.3h-14.7c-.2,0-.5,0-.6.1Z"/>
      <path class="st1" d="M541.5,327.2c-.4-.9-.9-1.7-1.6-2.4-.7-.7-1.5-1.2-2.4-1.6-.9-.4-1.9-.6-3-.6h-8.8c-.2,0-.5,0-.7.1-.2,0-.4.2-.5.4-.1.1-.3.3-.3.5s-.1.4-.1.6v14.7c0,.2,0,.5.1.7s.2.4.3.5c.1.1.3.3.5.3.2,0,.4.1.7.1h8.8c1.1,0,2.1-.2,3-.6.9-.4,1.7-.9,2.4-1.6.7-.7,1.2-1.5,1.6-2.4.4-.9.6-1.9.6-3v-2.9c0-1.1-.2-2.1-.6-3ZM538.9,333.1c0,.6-.1,1.2-.3,1.7-.2.5-.5,1-.9,1.3-.4.4-.8.7-1.3.9s-1.1.3-1.7.3h-7.2v-11.4h7.2c.6,0,1.2.1,1.7.3.5.2,1,.5,1.3.9.4.4.7.8.9,1.3.2.5.3,1.1.3,1.7v2.9Z"/>
    </g>
    <g>
      <path class="st2" d="M83.2,273.4c-5.9,0-10.1,5-10.1,10.9s4.2,10.4,10.1,10.4,10-4.5,10-10.4-4.2-10.9-10-10.9ZM83.2,288.1c-2.3,0-4-1.8-4-4s1.7-4.3,4-4.3,3.9,2,3.9,4.3-1.7,4-3.9,4Z"/>
      <polygon class="st2" points="83.2 267.6 86.5 270.8 90.7 266.5 86.4 262.3 83.2 265.5 79.9 262.3 75.7 266.5 80 270.8 83.2 267.6"/>
      <path class="st2" d="M105.3,272.7h-4.3v6.6h2.8c2.6,0,4.5,1.5,4.5,3.7v1.3c0,1.9-1.1,3.2-3.4,3.2h-10.3l1,6.8h9.2c6.6,0,9.9-3,10-8.7v-3.2c0-6.3-3.9-9.7-9.5-9.7Z"/>
      <path class="st2" d="M127.7,273.3c-5.7,0-10.2,4.5-10.2,10.7s3.9,10.3,9.6,10.3,2.5-.3,3.8-.9c-.2,3.3-3.6,4.5-11.2,4.5l.7,5.2c10.1,0,17-2.6,17-9.8v-9.7c0-6.4-4.1-10.3-9.7-10.3ZM131,287.4c-1.2.2-2.3.4-3.3.4-2.5,0-4.4-1.3-4.4-4s1.8-3.9,3.9-3.9,3.8,1.6,3.8,4.3v3.3Z"/>
      <path class="st2" d="M217.1,283.2c0,2.9-1.1,4.3-3.4,4.3s0,0,0,0c0,0,0,0,0,0h-2.2c.5-1.8.8-3.5.8-5.1,0-5.2-4.3-9.4-9.7-9.4s-10.2,4.3-10.2,10,.2,2.8.6,4c-.9.3-1.9.5-3,.5h-.7c-1.2,0-2.1-.2-2.8-.5l1-5.4c-9.5-6.6-12.7-8.2-16.3-8.2s-3.6.4-5.9,1.4l1.2,5.7c1.7-.3,2.6-.6,4-.6,2.8,0,5,1.1,10.5,4.9-5,1.9-9.2,2.6-17.1,2.6s0,0,0,0,0,0,0,0c-1.6,0-2.8-.4-4-1,0-.3,0-.6,0-.9v-3.2c0-6.3-3.9-9.7-9.5-9.7h-4.3v6.6h2.8c2.6,0,4.5,1.5,4.5,3.7v1.3c0,1.9-1.1,3.2-3.4,3.2h-10.3l1,6.8h9.2c3.5,0,6.1-.8,7.8-2.5,1.7,1.6,3.8,2.5,6.2,2.5s0,0,0,0c0,0,0,0,0,0,7.4,0,12.5-1.1,18.8-4.2,1,2.6,3.3,4.2,6.5,4.2h.7s0,0,0,0c2.1,0,4.7-.7,6.8-2.1,1.9,1.3,4.4,2.1,7.2,2.1h9.7c6.6,0,9.9-2.9,9.9-8.8v-21.4s-6.4.7-6.4.7v18.3ZM205.9,287.4h-2.1c-3.2,0-5.1-1.8-5.1-4.5s1.6-3.9,3.8-3.9,3.9,1.9,3.9,4.1-.2,2.6-.6,4.3Z"/>
      <polygon class="st2" points="229.4 294.2 235.8 294.2 235.8 264.1 229.4 264.9 229.4 294.2"/>
      <path class="st2" d="M258.4,273.4c-5.9,0-10.1,5-10.1,10.9s4.2,10.4,10.1,10.4,10-4.5,10-10.4-4.2-10.9-10-10.9ZM258.4,288.1c-2.3,0-4-1.8-4-4s1.7-4.3,4-4.3,3.9,2,3.9,4.3-1.7,4-3.9,4Z"/>
      <polygon class="st2" points="258.3 267.6 261.6 270.8 265.8 266.5 261.6 262.3 258.3 265.5 255.1 262.3 250.8 266.5 255.1 270.8 258.3 267.6"/>
      <path class="st2" d="M274.5,293c0,3.6-2.4,4.9-5.8,4.9l.5,5.2c7.9,0,11.7-2.7,11.7-9.8v-20l-6.4.8v18.9Z"/>
      <polygon class="st2" points="318.5 267 321.8 270.3 326 266 321.7 261.7 318.5 264.9 315.3 261.7 311 266 315.3 270.3 318.5 267"/>
      <path class="st2" d="M333.8,283.2c0,2.9-1.1,4.3-3.4,4.3s0,0,0,0c0,0,0,0,0,0-1.4,0-2.6,0-3.8-.2,1.2-1.5,1.9-3.3,1.9-5.3,0-4.7-3.8-8.9-9.5-8.9s-9.3,3.9-9.3,8.9.7,3.9,1.8,5.4c-1.3.1-2.6.2-4,.2s-2.8-.4-4-1c0-.3,0-.6,0-.9v-3.2c0-6.3-3.9-9.7-9.5-9.7h-4.3v6.6h2.8c2.6,0,4.5,1.5,4.5,3.7v1.3c0,1.9-1.1,3.2-3.4,3.2h-10.3l1,6.8h9.2c3.5,0,6.1-.8,7.8-2.5,1.7,1.6,3.8,2.5,6.1,2.5h0s0,0,0,0h0c4.2,0,8.5-.6,12-2.1,3.9,1.4,7.7,2.1,10.9,2.1h0c6.6,0,9.9-2.9,9.9-8.8v-21.4s-6.4.7-6.4.7v18.3ZM318.7,287.1c-2.3-.8-3.6-2.6-3.6-4.4s1.4-3.6,3.5-3.6,3.6,1.4,3.6,3.6-1.4,3.5-3.6,4.4Z"/>
      <polygon class="st2" points="346.1 294.2 352.6 294.2 352.6 264.1 346.1 264.9 346.1 294.2"/>
      <polygon class="st2" points="380.9 273.5 376.6 269.3 372.3 273.5 376.7 277.8 380.9 273.5"/>
      <polygon class="st2" points="402.6 299.3 399.6 296.4 395.3 300.6 399.6 304.9 402.6 301.9 405.6 304.9 409.8 300.6 405.5 296.4 402.6 299.3"/>
      <path class="st2" d="M417.9,283.4c0-2.2,1.8-3.8,4.8-3.8s2.9.3,5.4.9l1.7-5.5c-3.4-1.2-6.1-1.7-8.2-1.7-5.7,0-9.6,3.6-9.6,8.3s.5,3.8,1.4,5.8h-2.9c-1.6,0-3.2-.5-4.5-1.3v-8.6l-6.4.7v5c0,3-1.7,4.2-4.9,4.2s0,0,0,0c0,0,0,0,0,0-2.5,0-4.3-1.4-4.4-3.8v-10.3l-6.4.8v15.4c0,4.6-2.1,6.8-6.2,6.8s-6.5-2-6.5-6.1c0-2,.4-4,1.2-6.3l-5.2-1.4c-1.2,3.6-1.8,6.8-1.8,9.6,0,7.4,4.3,11,12.3,11s11.9-4,12.6-10.7c1.1,1.2,2.6,1.9,4.5,1.9,0,0,0,0,0,0h0c4.3,0,7.6-1,9.5-3.1,1.9,2,4.3,3.1,6.5,3.1,0,0,0,0,0,0h0c9.2,0,15-.7,20.6-1.7l1.4-6.9c-5,.8-8.8,1.3-13.5,1.6-.7-1.3-1.1-2.6-1.1-3.8Z"/>
      <polygon class="st2" points="453 267.3 456.3 270.5 460.5 266.2 456.2 262 453 265.1 449.8 262 445.5 266.2 449.8 270.5 453 267.3"/>
      <path class="st2" d="M478.3,275.8h-5.7l10.9-11.2-5.7-3.3-11.6,14.5,3.3,5.8h9.2c2.2,0,3.6,1.1,3.6,2.9s-1.4,3-3.6,3h-12.9c-1.5,0-2.3-.7-2.3-2.6v-13.7s-6.5.8-6.5.8v2.2c-1.5-.5-2.8-.8-4.2-.8-5.9,0-10,5-10,10.9s4.2,10.4,10,10.4,4.5-.6,6.9-1.9c1.4,1,3.4,1.5,6,1.5h12.9c6.3,0,10.1-3.6,10.1-9.7s-4.2-8.8-10.4-8.8ZM452.7,288.3c-2.4,0-4-1.9-4-4.2s1.7-4.4,4.4-4.4,2.5.3,3.8.7v5.3c0,.6,0,1.2.1,1.8-1.3.5-2.8.7-4.3.7Z"/>
      <polygon class="st2" points="528 263.3 525.2 260.5 522.5 263.3 525.2 266 528 263.3"/>
      <polygon class="st2" points="525.2 270.2 528.5 273.4 532.7 269.1 528.4 264.9 525.2 268 521.9 264.9 517.6 269.1 521.9 273.4 525.2 270.2"/>
      <path class="st2" d="M535,274.1v9.2c0,2.8-1.2,4.2-3.4,4.2s-2.1-.2-3.2-.5c0-.5,0-.9,0-1.4v-8.1l-6.4.7v5c0,2.9-1.1,4.2-3.4,4.2s-2.1-.2-3.1-.6c0-.4,0-.8,0-1.2v-8.1l-6.5.7v5c0,2.9-1.1,4.2-3.4,4.2-2.2,0-4-1.1-4.3-3v-11.1l-6.4.8v18.9c0,3.6-2.4,4.9-5.7,4.9l.5,5.2c7.9,0,11.7-2.7,11.7-9.8v-.7c1.1,1.1,2.6,1.7,4.3,1.7,0,0,0,0,0,0h0c3.3,0,5.8-.9,7.4-2.4,2,1.7,4,2.4,6.1,2.4s5-.9,6.6-2.3c2.3,1.6,4.5,2.3,6.9,2.3,5.7,0,8.7-3.1,8.7-8.7v-12.3l-6.4.7Z"/>
    </g>
  </g>
</svg>