<?xml version="1.0" encoding="UTF-8"?>
<svg id="Layer_1" xmlns="http://www.w3.org/2000/svg" version="1.1" xmlns:xlink="http://www.w3.org/1999/xlink" viewBox="0 0 841.9 595.3">
  <!-- Generator: Adobe Illustrator 29.0.0, SVG Export Plug-In . SVG Version: 2.1.0 Build 186)  -->
  <defs>
    <style>
      .st0 {
        fill: url(#linear-gradient);
      }

      .st1 {
        fill: #00b9ad;
      }

      .st2 {
        fill: #414042;
      }
    </style>
    <linearGradient id="linear-gradient" x1="277.6" y1="358.8" x2="480" y2="156.4" gradientUnits="userSpaceOnUse">
      <stop offset="0" stop-color="#1f9b90"/>
      <stop offset=".2" stop-color="#12a79c"/>
      <stop offset=".6" stop-color="#05b4a8"/>
      <stop offset="1" stop-color="#01b9ad"/>
    </linearGradient>
  </defs>
  <path class="st0" d="M421.1,112c33.9,0,65.9,16.8,85.4,45v.2c.1,0,47.7,70.6,47.7,70.6.4-4.1.6-8.3.6-12.5,0-73.8-59.8-133.6-133.6-133.6s-103.3,34-123.4,82.3l19.1,28.4,43.1,63.9c13.9,20,36.6,32,60.6,32s51.5-14.5,64.5-38l.5.3,17.9,26.5c-19.4,25.8-50.1,41.3-82.9,41.3s-65.9-16.8-85.4-45v-.2c-.1,0-47.1-69.8-47.1-69.8-.3,3.9-.5,7.8-.5,11.7,0,73.8,59.8,133.6,133.6,133.6s103-33.8,123.2-81.9l-19.5-29-43.1-63.9c-13.9-20-36.6-32-60.6-32s-51.5,14.5-64.5,38l-.5-.3-17.9-26.5c19.4-25.8,50.1-41.3,82.9-41.3ZM421.2,170.3c6.3,0,12.3,1.3,17.8,3.6,6.2,2.7,11.6,6.7,16,11.7,7,7.9,11.2,18.3,11.2,29.6,0,24.8-20.1,45-45,45s-45-20.1-45-45,20.1-45,45-45Z"/>
  <g>
    <path class="st1" d="M110.2,489.6c-.3.1-.5.3-.7.5-.2.2-.3.4-.5.7-.1.3-.2.5-.2.9v15.6c0,1.1.2,2.1.6,2.8.4.8.9,1.4,1.5,1.9.6.5,1.3.8,2,1,.7.2,1.4.3,2,.3h15.6v-4.3h-15.6c-.6,0-1-.2-1.3-.4s-.4-.7-.4-1.3v-13.5h17.4v-4.3h-19.5c-.3,0-.6,0-.9.2Z"/>
    <rect class="st1" x="114.9" y="499.2" width="13.7" height="4.4"/>
    <path class="st1" d="M154.3,506.2l-15.8-16.5c-.3-.3-.7-.5-1.1-.6-.4,0-.9,0-1.3.1-.4.2-.7.4-1,.8-.3.4-.4.8-.4,1.2v22h4.3v-16.8l15.8,16.5c.2.2.4.4.7.5.3,0,.5.1.8.1s.6,0,.9-.2c.3-.1.5-.3.7-.5.2-.2.3-.4.5-.7.1-.3.2-.6.2-.9v-22h-4.3v16.8Z"/>
    <path class="st1" d="M164.8,489.6c-.3.1-.5.3-.7.5-.2.2-.3.4-.5.7-.1.3-.2.5-.2.9v15.6c0,1.1.2,2.1.6,2.8.4.8.9,1.4,1.5,1.9.6.5,1.3.8,2,1,.7.2,1.4.3,2,.3h15.6v-4.3h-15.6c-.6,0-1-.2-1.3-.4-.3-.3-.4-.7-.4-1.3v-13.5h17.4v-4.3h-19.5c-.3,0-.6,0-.9.2Z"/>
    <rect class="st1" x="169.6" y="499.2" width="13.7" height="4.4"/>
    <path class="st1" d="M206.9,505.3c.6-.1,1.2-.3,1.8-.6.6-.3,1.2-.6,1.7-1,.5-.4,1-.9,1.4-1.5.4-.6.7-1.3,1-2.1.2-.8.4-1.7.4-2.6v-2.8c0-.5,0-1.1-.3-1.7-.2-.6-.5-1.2-.9-1.7s-1-1-1.6-1.3c-.7-.3-1.5-.5-2.4-.5h-16.4c-.3,0-.6,0-.9.2-.3.1-.5.3-.7.5-.2.2-.3.4-.5.7-.1.3-.2.5-.2.9v21.7h4.3v-19.5h14.3c0,0,.2,0,.3,0,.1,0,.2,0,.3.1,0,0,.2.2.2.3s0,.3,0,.6v2.7c0,.6,0,1.1-.3,1.5s-.4.8-.8,1.1c-.3.3-.7.6-1.2.7-.5.2-.9.3-1.5.3h-9.8v4.3h3.1l9,7.8h6.7l-9-7.8c.5,0,1.1,0,1.7-.2Z"/>
    <path class="st1" d="M240.5,499.8c-.2-.2-.4-.4-.7-.5-.3-.1-.6-.2-.9-.2h-13.7v4.4h11.5v5.4h-13.5c-.6,0-1-.2-1.3-.5s-.5-.7-.5-1.3v-11.7c0-.6.2-1,.4-1.3s.7-.4,1.3-.4h17.6v-4.3h-17.6c-.7,0-1.4,0-2,.3-.6.2-1.1.4-1.6.8-.5.3-.8.7-1.2,1.1-.3.4-.6.8-.8,1.3s-.3.9-.4,1.4c0,.5-.1.9-.1,1.3v11.7c0,.7,0,1.4.3,2s.4,1.1.8,1.6c.3.4.7.8,1.1,1.1.4.3.8.6,1.3.8.4.2.9.3,1.4.4.5,0,.9.1,1.3.1h15.6c.3,0,.6,0,.9-.2.3-.1.5-.3.7-.5s.3-.4.5-.7c.1-.3.2-.6.2-.9v-9.8c0-.3,0-.6-.2-.8-.1-.3-.3-.5-.5-.7Z"/>
    <path class="st1" d="M264.1,497.4c0,.8-.1,1.4-.3,1.8-.2.5-.5.8-.9,1.1-.4.3-.7.4-1.2.5-.4.1-.9.2-1.3.3h-7.8c-.6,0-1.1,0-1.5-.3-.5-.2-.9-.4-1.2-.7-.3-.3-.6-.7-.8-1.2s-.3-1-.3-1.5v-8h-4.3v8c0,1,.1,1.9.4,2.6.3.8.6,1.5,1,2.1.4.6.9,1.1,1.4,1.5.5.4,1.1.8,1.7,1s1.2.5,1.8.6c.6.1,1.2.2,1.7.2h1.7v7.8h4.4v-7.8h1.7c.5,0,1.1,0,1.7-.2.6-.1,1.2-.3,1.8-.6.6-.3,1.2-.6,1.7-1,.5-.4,1-.9,1.4-1.5.4-.6.7-1.3,1-2.1.2-.8.4-1.7.4-2.6v-8h-4.3v8Z"/>
    <rect class="st1" x="289.1" y="499.2" width="13.7" height="4.4"/>
    <path class="st1" d="M284.3,489.6c-.3.1-.5.3-.7.5-.2.2-.3.4-.5.7-.1.3-.2.5-.2.9v15.6c0,1.1.2,2.1.6,2.8.4.8.9,1.4,1.5,1.9.6.5,1.3.8,2,1,.7.2,1.4.3,2,.3h15.6v-4.3h-15.6c-.6,0-1-.2-1.3-.4-.3-.3-.4-.7-.4-1.3v-13.5h17.4v-4.3h-19.5c-.3,0-.6,0-.9.2Z"/>
    <path class="st1" d="M327.3,497.4c0,.8-.1,1.4-.3,1.8s-.5.8-.9,1.1c-.4.3-.8.4-1.2.5-.4.1-.9.2-1.3.3h-7.8c-.6,0-1.1,0-1.5-.3-.5-.2-.9-.4-1.2-.7-.3-.3-.6-.7-.7-1.2-.2-.4-.3-1-.3-1.5v-8h-4.3v8c0,1,.1,1.9.4,2.6s.6,1.5,1,2.1c.4.6.9,1.1,1.4,1.5.5.4,1.1.8,1.7,1s1.2.5,1.8.6c.6.1,1.2.2,1.7.2h1.7v7.8h4.4v-7.8h1.7c.5,0,1.1,0,1.7-.2.6-.1,1.2-.3,1.8-.6.6-.3,1.2-.6,1.7-1,.6-.4,1-.9,1.4-1.5.4-.6.7-1.3,1-2.1.3-.8.4-1.7.4-2.6v-8h-4.3v8Z"/>
    <path class="st1" d="M336.7,489.6c-.3.1-.5.3-.7.5-.2.2-.3.4-.5.7-.1.3-.2.5-.2.9v15.6c0,1.1.2,2.1.6,2.8.4.8.9,1.4,1.5,1.9.6.5,1.3.8,2,1,.7.2,1.4.3,2,.3h15.6v-4.3h-15.6c-.6,0-1-.2-1.3-.4s-.4-.7-.4-1.3v-13.5h17.4v-4.3h-19.5c-.3,0-.6,0-.9.2Z"/>
    <rect class="st1" x="341.5" y="499.2" width="13.7" height="4.4"/>
    <path class="st1" d="M376.1,489.7c-.6.2-1.1.4-1.6.8-.5.3-.8.7-1.2,1.1-.3.4-.6.8-.8,1.3s-.3.9-.4,1.4c0,.5-.1.9-.1,1.3v11.7c0,.7,0,1.4.3,2s.4,1.1.8,1.6c.3.4.7.8,1.1,1.1.4.3.8.6,1.3.8.4.2.9.3,1.4.4.5,0,.9.1,1.3.1h15.6v-4.3h-15.6c-.6,0-1-.2-1.3-.5-.3-.3-.5-.7-.5-1.3v-11.7c0-.6.2-1,.4-1.3s.7-.4,1.3-.4h15.6v-4.3h-15.6c-.7,0-1.4,0-2,.3Z"/>
    <path class="st1" d="M419.7,491.9c-.9-.9-1.9-1.6-3.2-2.1-1.2-.5-2.5-.8-4-.8h-5.9c-1.4,0-2.8.3-4,.8-1.2.5-2.3,1.2-3.2,2.1-.9.9-1.6,1.9-2.1,3.2-.5,1.2-.8,2.6-.8,4v4.6c0,1.5.3,2.8.8,4,.5,1.2,1.2,2.3,2.1,3.2.9.9,1.9,1.6,3.2,2.1,1.2.5,2.5.7,4,.7h5.9c1.4,0,2.8-.2,4-.7,1.2-.5,2.3-1.2,3.2-2.1.9-.9,1.6-1.9,2.1-3.2.5-1.2.7-2.6.7-4v-4.6c0-1.4-.3-2.8-.7-4-.5-1.2-1.2-2.3-2.1-3.2ZM418.2,503.6c0,.9-.1,1.6-.4,2.3-.3.7-.7,1.3-1.2,1.8-.5.5-1.1.9-1.8,1.1-.7.3-1.5.4-2.3.4h-5.8c-.8,0-1.6-.1-2.3-.4-.7-.3-1.3-.7-1.8-1.1-.5-.5-.9-1.1-1.2-1.8-.3-.7-.4-1.5-.4-2.3v-4.6c0-.9.1-1.6.4-2.3.3-.7.7-1.3,1.2-1.8.5-.5,1.1-.9,1.8-1.1.7-.3,1.5-.4,2.3-.4h5.9c.8,0,1.6.1,2.3.4.7.3,1.3.7,1.8,1.1.5.5.9,1.1,1.1,1.8.3.7.4,1.5.4,2.3v4.6Z"/>
    <path class="st1" d="M453,489.1c-.5-.1-1,0-1.4,0s-.8.5-1.1.9l-9.9,17.1-9.9-17.1c-.1-.2-.3-.4-.4-.5-.2-.2-.4-.3-.6-.3-.2,0-.4-.1-.7-.2s-.5,0-.7,0c-.5.1-.9.4-1.2.8-.3.4-.4.8-.4,1.3v22h4.3v-14.2l7.7,13.5c.2.3.4.6.8.8.3.2.7.3,1.1.3s.8,0,1.1-.3c.3-.2.6-.4.8-.8l7.7-13.5v14.2h4.4v-22c0-.5-.1-.9-.4-1.3-.3-.4-.7-.6-1.1-.8Z"/>
    <path class="st1" d="M482.6,493.9c-.3-.6-.6-1.2-1-1.7-.4-.5-.9-1-1.5-1.4-.6-.4-1.3-.7-2.1-1-.8-.3-1.7-.4-2.6-.4h-9.8c-.6,0-1.3.1-2,.3-.7.2-1.4.6-2,1-.6.5-1.1,1.1-1.5,1.9-.4.8-.6,1.7-.6,2.8v17.8h4.3v-17.8c0-.6.1-1,.4-1.3.3-.3.7-.4,1.3-.4h9.8c.6,0,1.1,0,1.5.3.4.2.8.4,1.1.8.3.3.5.7.7,1.2.2.5.3,1,.3,1.5v2c0,.6,0,1.1-.3,1.5-.2.4-.4.8-.7,1.1-.3.3-.7.6-1.2.7-.4.2-1,.3-1.5.3h-9.8v4.3h9.8c.5,0,1.1,0,1.7-.2.6-.1,1.2-.3,1.8-.6.6-.3,1.2-.6,1.7-1,.5-.4,1-.9,1.4-1.5.4-.6.7-1.3,1-2.1.2-.8.4-1.7.4-2.6v-2c0-.5,0-1.1-.2-1.7-.1-.6-.3-1.2-.6-1.8Z"/>
    <path class="st1" d="M509.9,490c-.2-.2-.4-.4-.7-.5-.3-.1-.5-.2-.9-.2h-9.8c-1.7,0-3.3.3-4.8.9-1.5.6-2.7,1.4-3.8,2.5-1.1,1.1-1.9,2.3-2.5,3.8-.6,1.5-.9,3.1-.9,4.8v11.9h4.3v-5.9h15.2v5.9h4.3v-21.7c0-.3,0-.6-.2-.9-.1-.3-.3-.5-.5-.7ZM506.2,503.1h-15.2v-1.7c0-1.2.2-2.2.5-3.1.3-.9.8-1.6,1.3-2.1.5-.6,1.1-1,1.7-1.3.6-.3,1.2-.6,1.8-.7.6-.2,1.1-.3,1.5-.3.4,0,.7,0,.8,0h7.6v9.4Z"/>
    <path class="st1" d="M535.1,506.2l-15.8-16.5c-.3-.3-.7-.5-1.1-.6-.4,0-.9,0-1.3.1-.4.2-.7.4-1,.8-.3.4-.4.8-.4,1.2v22h4.3v-16.8l15.8,16.5c.2.2.4.4.7.5.3,0,.5.1.8.1s.6,0,.9-.2c.3-.1.5-.3.7-.5.2-.2.3-.4.5-.7.1-.3.2-.6.2-.9v-22h-4.3v16.8Z"/>
    <path class="st1" d="M562.9,497.4c0,.8-.1,1.4-.3,1.8-.2.5-.5.8-.9,1.1-.4.3-.7.4-1.2.5-.4.1-.9.2-1.3.3h-7.8c-.6,0-1.1,0-1.5-.3-.5-.2-.9-.4-1.2-.7-.3-.3-.6-.7-.8-1.2-.2-.4-.3-1-.3-1.5v-8h-4.3v8c0,1,.1,1.9.4,2.6.3.8.6,1.5,1,2.1.4.6.9,1.1,1.4,1.5.5.4,1.1.8,1.7,1s1.2.5,1.8.6c.6.1,1.2.2,1.7.2h1.7v7.8h4.4v-7.8h1.7c.5,0,1.1,0,1.7-.2.6-.1,1.2-.3,1.8-.6.6-.3,1.2-.6,1.7-1,.5-.4,1-.9,1.4-1.5.4-.6.7-1.3,1-2.1.2-.8.4-1.7.4-2.6v-8h-4.3v8Z"/>
    <path class="st1" d="M586.2,489.4h-4.3v21.7c0,.3,0,.6.2.9.1.3.3.5.5.7.2.2.4.3.7.5.3.1.6.2.9.2h19.7v-4.3h-17.6v-19.5Z"/>
    <rect class="st1" x="607" y="489.4" width="4.3" height="23.9"/>
    <path class="st1" d="M642.6,489.1c-.5-.1-1,0-1.4,0-.5.2-.8.5-1.1.9l-9.9,17.1-9.9-17.1c-.1-.2-.3-.4-.4-.5-.2-.2-.4-.3-.6-.3-.2,0-.4-.1-.7-.2s-.5,0-.7,0c-.5.1-.9.4-1.2.8s-.4.8-.4,1.3v22h4.3v-14.2l7.7,13.5c.2.3.4.6.8.8.3.2.7.3,1.1.3s.8,0,1.1-.3c.3-.2.6-.4.8-.8l7.7-13.5v14.2h4.4v-22c0-.5-.2-.9-.4-1.3-.3-.4-.7-.6-1.1-.8Z"/>
    <rect class="st1" x="649.3" y="489.4" width="4.3" height="23.9"/>
    <polygon class="st1" points="656.8 493.7 666.4 493.7 666.4 513.3 670.7 513.3 670.7 493.7 680.3 493.7 680.3 489.4 656.8 489.4 656.8 493.7"/>
    <path class="st1" d="M684.6,489.6c-.3.1-.5.3-.7.5-.2.2-.3.4-.5.7-.1.3-.2.5-.2.9v15.6c0,1.1.2,2.1.6,2.8.4.8.9,1.4,1.5,1.9.6.5,1.3.8,2,1,.7.2,1.4.3,2,.3h15.6v-4.3h-15.6c-.6,0-1-.2-1.3-.4s-.4-.7-.4-1.3v-13.5h17.4v-4.3h-19.5c-.3,0-.6,0-.9.2Z"/>
    <rect class="st1" x="689.4" y="499.2" width="13.7" height="4.4"/>
    <path class="st1" d="M732.3,495.4c-.5-1.2-1.2-2.3-2.1-3.2-.9-.9-1.9-1.6-3.2-2.1-1.2-.5-2.5-.7-4-.7h-11.7c-.3,0-.6,0-.9.2-.3.1-.5.3-.7.5s-.3.4-.5.7c-.1.3-.2.5-.2.9v19.5c0,.3,0,.6.2.9.1.3.3.5.5.7.2.2.4.3.7.5.3.1.6.2.9.2h11.7c1.4,0,2.8-.3,4-.7,1.2-.5,2.3-1.2,3.2-2.1.9-.9,1.6-1.9,2.1-3.2.5-1.2.8-2.6.8-4v-3.9c0-1.4-.3-2.8-.8-4ZM728.7,503.3c0,.9-.1,1.6-.4,2.3-.3.7-.7,1.3-1.2,1.8-.5.5-1.1.9-1.8,1.1-.7.3-1.5.4-2.3.4h-9.5v-15.2h9.5c.8,0,1.6.1,2.3.4.7.3,1.3.7,1.8,1.1.5.5.9,1.1,1.2,1.8.3.7.4,1.5.4,2.3v3.9Z"/>
  </g>
  <g>
    <path class="st2" d="M122.3,423.8c-7.9,0-13.4,6.7-13.4,14.5s5.6,13.9,13.4,13.9,13.3-6,13.3-13.9-5.6-14.5-13.3-14.5ZM122.3,443.4c-3.1,0-5.3-2.4-5.3-5.4s2.3-5.7,5.3-5.7,5.2,2.6,5.2,5.7-2.2,5.4-5.2,5.4Z"/>
    <polygon class="st2" points="122.2 416.1 126.6 420.4 132.2 414.7 126.5 409 122.2 413.3 117.9 409 112.2 414.7 117.9 420.4 122.2 416.1"/>
    <path class="st2" d="M151.7,422.8h-5.7v8.8h3.7c3.5,0,5.9,2,6,4.9v1.8c0,2.5-1.5,4.2-4.6,4.2h-13.7l1.3,9.1h12.3c8.9,0,13.2-4,13.3-11.5v-4.3c0-8.4-5.2-12.9-12.6-12.9Z"/>
    <path class="st2" d="M181.5,423.7c-7.6,0-13.5,6-13.5,14.2s5.2,13.7,12.8,13.7,3.4-.4,5.1-1.2c-.3,4.3-4.8,6-14.9,6l.9,7c13.4,0,22.6-3.5,22.6-13v-12.9c0-8.5-5.5-13.7-12.9-13.7ZM185.8,442.5c-1.5.3-3,.5-4.3.5-3.4,0-5.8-1.8-5.8-5.4s2.4-5.2,5.2-5.2,5,2.1,5,5.7v4.4Z"/>
    <path class="st2" d="M300.4,436.8c0,3.9-1.4,5.7-4.6,5.7s0,0,0,0,0,0,0,0h-3c.7-2.4,1.1-4.6,1.1-6.8,0-7-5.8-12.5-12.9-12.5s-13.6,5.7-13.6,13.3.3,3.7.8,5.3c-1.2.4-2.5.6-4,.6h-.9c-1.6,0-2.8-.2-3.7-.6l1.4-7.1c-12.7-8.8-16.9-10.9-21.7-10.9s-4.8.5-7.9,1.9l1.6,7.6c2.3-.4,3.5-.8,5.3-.8,3.7,0,6.6,1.5,14,6.5-6.6,2.5-12.3,3.5-22.7,3.5s0,0,0,0c0,0,0,0,0,0-2.1,0-3.8-.5-5.3-1.3,0-.4,0-.8,0-1.2v-4.3c0-8.4-5.2-12.9-12.6-12.9h-5.7v8.8h3.7c3.5,0,5.9,2,6,4.9v1.8c0,2.5-1.5,4.2-4.6,4.2h-13.7l1.3,9.1h12.3c4.7,0,8.1-1.1,10.3-3.3,2.2,2.1,5,3.3,8.2,3.3s0,0,0,0c0,0,0,0,0,0,9.8,0,16.6-1.5,25.1-5.6,1.3,3.5,4.5,5.6,8.7,5.6h.9s0,0,0,0c2.9,0,6.2-1,9-2.7,2.5,1.8,5.8,2.8,9.6,2.8h12.9s0,0,0,0c8.8,0,13.2-3.9,13.2-11.7v-28.5c0,0-8.5,1-8.5,1v24.4ZM285.6,442.5h-2.8c-4.3,0-6.8-2.4-6.8-5.9s2.1-5.2,5.1-5.2,5.2,2.5,5.2,5.4-.2,3.4-.8,5.7Z"/>
    <polygon class="st2" points="316.8 451.6 325.4 451.6 325.4 411.4 316.8 412.4 316.8 451.6"/>
    <path class="st2" d="M355.4,423.8c-7.9,0-13.4,6.7-13.4,14.5s5.6,13.9,13.4,13.9,13.3-6,13.3-13.9-5.6-14.5-13.3-14.5ZM355.4,443.4c-3.1,0-5.3-2.4-5.3-5.4s2.3-5.7,5.3-5.7,5.2,2.6,5.2,5.7-2.2,5.4-5.2,5.4Z"/>
    <polygon class="st2" points="355.3 416.1 359.7 420.4 365.3 414.7 359.6 409 355.3 413.3 351 409 345.3 414.7 351 420.4 355.3 416.1"/>
    <path class="st2" d="M376.8,449.9c0,4.7-3.2,6.5-7.7,6.5l.6,7c10.5,0,15.6-3.6,15.6-13.1v-26.6l-8.6,1v25.2Z"/>
    <polygon class="st2" points="435.4 415.3 439.8 419.6 445.4 413.9 439.7 408.3 435.4 412.5 431.1 408.3 425.4 413.9 431.1 419.6 435.4 415.3"/>
    <path class="st2" d="M455.8,436.8c0,3.9-1.4,5.7-4.6,5.7s0,0,0,0c0,0,0,0,0,0-1.9,0-3.5-.1-5.1-.3,1.6-2,2.6-4.4,2.6-7,0-6.3-5.1-11.9-12.6-11.9s-12.4,5.2-12.4,11.8.9,5.2,2.4,7.2c-1.7.2-3.5.2-5.3.2-2.1,0-3.8-.5-5.3-1.3,0-.4,0-.8,0-1.2v-4.3c0-8.4-5.2-12.9-12.6-12.9h-5.7v8.8h3.7c3.5,0,5.9,2,6,4.9v1.8c0,2.5-1.5,4.2-4.6,4.2h-13.7l1.3,9.1h12.3c4.7,0,8.1-1.1,10.3-3.3,2.2,2.1,5,3.3,8.2,3.3,0,0,0,0,0,0,0,0,0,0,0,0s0,0,0,0c0,0,0,0,0,0,5.5,0,11.3-.8,16-2.7,5.2,1.8,10.2,2.7,14.4,2.7,0,0,0,0,0,0h0s0,0,0,0c8.8,0,13.2-3.9,13.2-11.7v-28.5c0,0-8.5,1-8.5,1v24.4ZM435.7,442.1c-3-1.1-4.7-3.5-4.7-5.9s1.8-4.8,4.7-4.8,4.8,1.9,4.8,4.8-1.8,4.6-4.8,5.9Z"/>
    <polygon class="st2" points="472.2 451.6 480.8 451.6 480.8 411.4 472.2 412.4 472.2 451.6"/>
    <polygon class="st2" points="518.5 424 512.7 418.3 507 424 512.8 429.6 518.5 424"/>
    <polygon class="st2" points="547.3 458.3 543.3 454.4 537.6 460 543.4 465.7 547.3 461.8 551.3 465.7 557 460 551.2 454.4 547.3 458.3"/>
    <path class="st2" d="M567.7,437.2c0-3,2.4-5.1,6.4-5.1s3.9.4,7.1,1.3l2.3-7.3c-4.6-1.5-8.1-2.3-10.9-2.3-7.6,0-12.8,4.8-12.8,11.1s.6,5.1,1.9,7.7h-3.9c-2.1,0-4.2-.6-6-1.8v-11.4l-8.6,1v6.6c0,4-2.3,5.6-6.5,5.6s0,0,0,0c0,0,0,0,0,0-3.3,0-5.7-1.8-5.8-5.1v-13.7l-8.6,1v20.5c0,6.2-2.7,9.1-8.3,9.1s-8.6-2.7-8.7-8.1c0-2.6.5-5.3,1.5-8.4l-6.9-1.9c-1.6,4.8-2.4,9.1-2.4,12.8,0,9.8,5.7,14.7,16.4,14.7s15.8-5.3,16.8-14.3c1.4,1.6,3.5,2.5,5.9,2.5,0,0,0,0,0,0,0,0,0,0,0,0s0,0,0,0,0,0,0,0c5.8,0,10.1-1.4,12.6-4.1,2.6,2.6,5.7,4.1,8.6,4.1,0,0,0,0,0,0h0c12.3,0,20-.9,27.4-2.3l1.8-9.1c-6.6,1.1-11.8,1.8-17.9,2.1-.9-1.7-1.4-3.5-1.4-5.1Z"/>
    <polygon class="st2" points="614.5 415.7 618.9 420 624.5 414.2 618.7 408.6 614.5 412.8 610.1 408.6 604.5 414.2 610.2 420 614.5 415.7"/>
    <path class="st2" d="M648,427h-7.6l14.6-15-7.6-4.3-15.5,19.3,4.4,7.7h12.3c2.9,0,4.7,1.5,4.7,3.8s-1.9,4-4.8,4h-17.2c-2,0-3.1-1-3.1-3.4v-18.3c0,0-8.6,1-8.6,1v3c-2-.7-3.7-1-5.6-1-7.8,0-13.4,6.7-13.4,14.5s5.6,13.9,13.4,13.9,5.9-.8,9.2-2.5c1.9,1.4,4.6,2,8,2,0,0,0,0,0,0h17.2c8.4,0,13.4-4.7,13.4-12.9s-5.6-11.7-13.9-11.7ZM614.1,443.6c-3.1-.1-5.4-2.5-5.4-5.6s2.3-5.8,5.8-5.8,3.4.4,5.1,1v7.1c0,.8,0,1.7.2,2.4-1.7.7-3.7,1-5.7.9Z"/>
    <path class="st2" d="M723.5,424.7v12.2c0,3.7-1.6,5.6-4.6,5.6s-2.9-.2-4.2-.7c0-.6.1-1.2.1-1.8v-10.7l-8.6,1v6.6c0,3.9-1.4,5.6-4.6,5.6s-2.7-.3-4.1-.8c0-.5.1-1.1.1-1.6v-10.7l-8.6,1v6.6c0,3.9-1.4,5.6-4.5,5.6-2.9,0-5.3-1.4-5.7-4v-14.8l-8.6,1v25.2c0,4.7-3.2,6.5-7.6,6.5l.6,7c10.5,0,15.6-3.6,15.6-13.1v-.9c1.4,1.4,3.4,2.2,5.7,2.2,0,0,0,0,0,0,0,0,0,0,0,0s0,0,0,0,0,0,0,0c4.4,0,7.7-1.2,9.9-3.2,2.7,2.2,5.4,3.2,8.1,3.2s6.7-1.2,8.9-3.1c3.1,2.1,6,3.1,9.1,3.1,7.6,0,11.5-4.1,11.5-11.5v-16.3l-8.6,1Z"/>
    <polygon class="st2" points="714.2 410.3 710.5 406.7 706.9 410.3 710.5 414 714.2 410.3"/>
    <polygon class="st2" points="710.5 419.5 714.9 423.8 720.5 418.1 714.7 412.4 710.5 416.7 706.1 412.4 700.4 418.1 706.2 423.8 710.5 419.5"/>
  </g>
</svg>